<svg width="18" height="18" viewBox="0 0 18 18" fill="none" xmlns="http://www.w3.org/2000/svg">
<path d="M9.00004 17.1666C8.66948 17.1666 8.3926 17.0546 8.16937 16.8306C7.94537 16.6074 7.83337 16.3305 7.83337 15.9999V10.1666H2.00004C1.66949 10.1666 1.39221 10.0546 1.16821 9.83058C0.944985 9.60736 0.833374 9.33047 0.833374 8.99992C0.833374 8.66936 0.944985 8.39208 1.16821 8.16808C1.39221 7.94486 1.66949 7.83325 2.00004 7.83325H7.83337V1.99992C7.83337 1.66936 7.94537 1.39209 8.16937 1.16809C8.3926 0.944863 8.66948 0.833252 9.00004 0.833252C9.3306 0.833252 9.60787 0.944863 9.83187 1.16809C10.0551 1.39209 10.1667 1.66936 10.1667 1.99992V7.83325H16C16.3306 7.83325 16.6075 7.94486 16.8307 8.16808C17.0547 8.39208 17.1667 8.66936 17.1667 8.99992C17.1667 9.33047 17.0547 9.60736 16.8307 9.83058C16.6075 10.0546 16.3306 10.1666 16 10.1666H10.1667V15.9999C10.1667 16.3305 10.0551 16.6074 9.83187 16.8306C9.60787 17.0546 9.3306 17.1666 9.00004 17.1666Z" fill="white"/>
</svg>
