<svg width="25" height="25" viewBox="0 0 25 25" fill="none" xmlns="http://www.w3.org/2000/svg">
<path d="M2.08333 25C1.52778 25 1.04167 24.7917 0.625 24.375C0.208333 23.9583 0 23.4722 0 22.9167V2.08333C0 1.52778 0.208333 1.04167 0.625 0.625C1.04167 0.208333 1.52778 0 2.08333 0H22.9167C23.4722 0 23.9583 0.208333 24.375 0.625C24.7917 1.04167 25 1.52778 25 2.08333V22.9167C25 23.4722 24.7917 23.9583 24.375 24.375C23.9583 24.7917 23.4722 25 22.9167 25H2.08333ZM2.08333 22.9167H22.9167V2.08333H2.08333V22.9167ZM10.3819 17.6042C10.5208 17.6042 10.6481 17.581 10.7639 17.5347C10.8796 17.4884 10.9954 17.4074 11.1111 17.2917L19.6875 8.71528C19.8727 8.53009 19.9711 8.28704 19.9826 7.98611C19.9942 7.68518 19.8958 7.43056 19.6875 7.22222C19.4792 7.01389 19.2303 6.90972 18.941 6.90972C18.6516 6.90972 18.4028 7.01389 18.1944 7.22222L10.3819 15.0347L6.97917 11.6319C6.79398 11.4468 6.55671 11.3484 6.26736 11.3368C5.97801 11.3252 5.72917 11.4236 5.52083 11.6319C5.3125 11.8403 5.20833 12.0891 5.20833 12.3785C5.20833 12.6678 5.3125 12.9167 5.52083 13.125L9.65278 17.2917C9.76852 17.4074 9.88426 17.4884 10 17.5347C10.1157 17.581 10.2431 17.6042 10.3819 17.6042Z" fill="#5A45FE"/>
</svg>
