<svg width="25" height="25" viewBox="0 0 25 25" fill="none" xmlns="http://www.w3.org/2000/svg">
<path d="M2.08333 25C1.52778 25 1.04167 24.7917 0.625 24.375C0.208333 23.9583 0 23.4722 0 22.9167V2.08333C0 1.52778 0.208333 1.04167 0.625 0.625C1.04167 0.208333 1.52778 0 2.08333 0H22.9167C23.4722 0 23.9583 0.208333 24.375 0.625C24.7917 1.04167 25 1.52778 25 2.08333V22.9167C25 23.4722 24.7917 23.9583 24.375 24.375C23.9583 24.7917 23.4722 25 22.9167 25H2.08333ZM2.08333 22.9167H22.9167V2.08333H2.08333V22.9167Z" fill="#8090FF"/>
</svg>
