<svg width="30" height="30" viewBox="0 0 30 30" fill="none" xmlns="http://www.w3.org/2000/svg">
<mask id="mask0_67_49" style="mask-type:alpha" maskUnits="userSpaceOnUse" x="0" y="0" width="30" height="30">
<rect width="30" height="30" fill="#D9D9D9"/>
</mask>
<g mask="url(#mask0_67_49)">
<path d="M15 6.25C14.6458 6.25 14.3492 6.13 14.11 5.89C13.87 5.65083 13.75 5.35417 13.75 5V2.5C13.75 2.14583 13.87 1.84875 14.11 1.60875C14.3492 1.36958 14.6458 1.25 15 1.25C15.3542 1.25 15.6512 1.36958 15.8912 1.60875C16.1304 1.84875 16.25 2.14583 16.25 2.5V5C16.25 5.35417 16.1304 5.65083 15.8912 5.89C15.6512 6.13 15.3542 6.25 15 6.25ZM21.1875 8.8125C20.9583 8.58333 20.8437 8.29667 20.8437 7.9525C20.8437 7.60917 20.9583 7.3125 21.1875 7.0625L22.9375 5.28125C23.1875 5.03125 23.4842 4.90625 23.8275 4.90625C24.1717 4.90625 24.4687 5.03125 24.7187 5.28125C24.9479 5.51042 25.0625 5.80208 25.0625 6.15625C25.0625 6.51042 24.9479 6.80208 24.7187 7.03125L22.9375 8.8125C22.7083 9.04167 22.4167 9.15625 22.0625 9.15625C21.7083 9.15625 21.4167 9.04167 21.1875 8.8125ZM25 16.25C24.6458 16.25 24.3492 16.13 24.11 15.89C23.87 15.6508 23.75 15.3542 23.75 15C23.75 14.6458 23.87 14.3487 24.11 14.1087C24.3492 13.8696 24.6458 13.75 25 13.75H27.5C27.8542 13.75 28.1508 13.8696 28.39 14.1087C28.63 14.3487 28.75 14.6458 28.75 15C28.75 15.3542 28.63 15.6508 28.39 15.89C28.1508 16.13 27.8542 16.25 27.5 16.25H25ZM15 28.75C14.6458 28.75 14.3492 28.63 14.11 28.39C13.87 28.1508 13.75 27.8542 13.75 27.5V25C13.75 24.6458 13.87 24.3492 14.11 24.11C14.3492 23.87 14.6458 23.75 15 23.75C15.3542 23.75 15.6512 23.87 15.8912 24.11C16.1304 24.3492 16.25 24.6458 16.25 25V27.5C16.25 27.8542 16.1304 28.1508 15.8912 28.39C15.6512 28.63 15.3542 28.75 15 28.75ZM7.0625 8.8125L5.28125 7.0625C5.03125 6.8125 4.90625 6.51042 4.90625 6.15625C4.90625 5.80208 5.03125 5.51042 5.28125 5.28125C5.51042 5.05208 5.80208 4.9375 6.15625 4.9375C6.51042 4.9375 6.80208 5.05208 7.03125 5.28125L8.8125 7.0625C9.04167 7.29167 9.15625 7.58333 9.15625 7.9375C9.15625 8.29167 9.04167 8.58333 8.8125 8.8125C8.5625 9.04167 8.27083 9.15625 7.9375 9.15625C7.60417 9.15625 7.3125 9.04167 7.0625 8.8125ZM22.9375 24.7187L21.1875 22.9375C20.9583 22.6875 20.8437 22.3908 20.8437 22.0475C20.8437 21.7033 20.9583 21.4167 21.1875 21.1875C21.4167 20.9583 21.7033 20.8437 22.0475 20.8437C22.3908 20.8437 22.6875 20.9583 22.9375 21.1875L24.7187 22.9375C24.9687 23.1667 25.0883 23.4583 25.0775 23.8125C25.0675 24.1667 24.9479 24.4687 24.7187 24.7187C24.4687 24.9687 24.1667 25.0937 23.8125 25.0937C23.4583 25.0937 23.1667 24.9687 22.9375 24.7187ZM2.5 16.25C2.14583 16.25 1.84917 16.13 1.61 15.89C1.37 15.6508 1.25 15.3542 1.25 15C1.25 14.6458 1.37 14.3487 1.61 14.1087C1.84917 13.8696 2.14583 13.75 2.5 13.75H5C5.35417 13.75 5.65125 13.8696 5.89125 14.1087C6.13042 14.3487 6.25 14.6458 6.25 15C6.25 15.3542 6.13042 15.6508 5.89125 15.89C5.65125 16.13 5.35417 16.25 5 16.25H2.5ZM5.28125 24.7187C5.05208 24.4896 4.9375 24.1979 4.9375 23.8437C4.9375 23.4896 5.05208 23.1979 5.28125 22.9687L7.0625 21.1875C7.29167 20.9583 7.57833 20.8437 7.9225 20.8437C8.26583 20.8437 8.5625 20.9583 8.8125 21.1875C9.0625 21.4375 9.1875 21.7346 9.1875 22.0787C9.1875 22.4221 9.0625 22.7187 8.8125 22.9687L7.0625 24.7187C6.8125 24.9687 6.51042 25.0937 6.15625 25.0937C5.80208 25.0937 5.51042 24.9687 5.28125 24.7187ZM15 22.5C12.9167 22.5 11.1458 21.7708 9.6875 20.3125C8.22917 18.8542 7.5 17.0833 7.5 15C7.5 12.9167 8.22917 11.1458 9.6875 9.6875C11.1458 8.22917 12.9167 7.5 15 7.5C17.0833 7.5 18.8542 8.22917 20.3125 9.6875C21.7708 11.1458 22.5 12.9167 22.5 15C22.5 17.0833 21.7708 18.8542 20.3125 20.3125C18.8542 21.7708 17.0833 22.5 15 22.5ZM15 20C16.375 20 17.5521 19.5104 18.5312 18.5312C19.5104 17.5521 20 16.375 20 15C20 13.625 19.5104 12.4479 18.5312 11.4687C17.5521 10.4896 16.375 10 15 10C13.625 10 12.4479 10.4896 11.4687 11.4687C10.4896 12.4479 10 13.625 10 15C10 16.375 10.4896 17.5521 11.4687 18.5312C12.4479 19.5104 13.625 20 15 20Z" fill="white"/>
</g>
</svg>
