<svg width="20" height="20" viewBox="0 0 20 20" fill="none" xmlns="http://www.w3.org/2000/svg">
<path d="M10 11.7935L2.17551 19.618C1.92147 19.8727 1.62255 20 1.27874 20C0.935544 20 0.636622 19.8727 0.381973 19.618C0.127324 19.3634 0 19.0645 0 18.7213C0 18.3775 0.127324 18.0785 0.381973 17.8245L8.20647 10L0.381973 2.17551C0.127324 1.92147 0 1.62255 0 1.27874C0 0.935544 0.127324 0.636622 0.381973 0.381973C0.636622 0.127324 0.935544 0 1.27874 0C1.62255 0 1.92147 0.127324 2.17551 0.381973L10 8.20647L17.8245 0.381973C18.0785 0.127324 18.3775 0 18.7213 0C19.0645 0 19.3634 0.127324 19.618 0.381973C19.8727 0.636622 20 0.935544 20 1.27874C20 1.62255 19.8727 1.92147 19.618 2.17551L11.7935 10L19.618 17.8245C19.8727 18.0785 20 18.3775 20 18.7213C20 19.0645 19.8727 19.3634 19.618 19.618C19.3634 19.8727 19.0645 20 18.7213 20C18.3775 20 18.0785 19.8727 17.8245 19.618L10 11.7935Z" fill="#FE5045"/>
</svg>
