<svg width="30" height="30" viewBox="0 0 30 30" fill="none" xmlns="http://www.w3.org/2000/svg">
<mask id="mask0_67_43" style="mask-type:alpha" maskUnits="userSpaceOnUse" x="0" y="0" width="30" height="30">
<rect width="30" height="30" fill="#D9D9D9"/>
</mask>
<g mask="url(#mask0_67_43)">
<path d="M15 26.2499C11.8542 26.2499 9.1925 25.1611 7.015 22.9836C4.83833 20.807 3.75 18.1457 3.75 14.9999C3.75 12.1249 4.6875 9.62988 6.5625 7.51488C8.4375 5.40071 10.8333 4.16654 13.75 3.81238C14.2708 3.74988 14.6771 3.93738 14.9688 4.37488C15.2604 4.81238 15.25 5.27071 14.9375 5.74988C14.5833 6.29154 14.3175 6.86446 14.14 7.46863C13.9633 8.07279 13.875 8.70821 13.875 9.37488C13.875 11.2499 14.5313 12.8436 15.8438 14.1561C17.1563 15.4686 18.75 16.1249 20.625 16.1249C21.2708 16.1249 21.9117 16.0311 22.5475 15.8436C23.1825 15.6561 23.75 15.3957 24.25 15.0624C24.6875 14.7707 25.1354 14.7549 25.5938 15.0149C26.0521 15.2757 26.25 15.6874 26.1875 16.2499C25.8958 19.1249 24.6721 21.5103 22.5163 23.4061C20.3596 25.302 17.8542 26.2499 15 26.2499ZM15 23.7499C16.8333 23.7499 18.4792 23.2449 19.9375 22.2349C21.3958 21.224 22.4583 19.9061 23.125 18.2811C22.7083 18.3853 22.2917 18.4686 21.875 18.5311C21.4583 18.5936 21.0417 18.6249 20.625 18.6249C18.0625 18.6249 15.88 17.724 14.0775 15.9224C12.2758 14.1199 11.375 11.9374 11.375 9.37488C11.375 8.95821 11.4063 8.54154 11.4688 8.12488C11.5313 7.70821 11.6146 7.29154 11.7188 6.87488C10.0938 7.54154 8.77625 8.60404 7.76625 10.0624C6.75542 11.5207 6.25 13.1665 6.25 14.9999C6.25 17.4165 7.10417 19.479 8.8125 21.1874C10.5208 22.8957 12.5833 23.7499 15 23.7499Z" fill="#5A45FE"/>
</g>
</svg>
