<svg width="24" height="25" viewBox="0 0 24 25" fill="none" xmlns="http://www.w3.org/2000/svg">
<path d="M3.68229 25C3.09896 25 2.58854 24.7917 2.15104 24.375C1.71354 23.9583 1.49479 23.4722 1.49479 22.9167V3.125H1.09375C0.777778 3.125 0.516493 3.02662 0.309896 2.82986C0.103299 2.6331 0 2.38426 0 2.08333C0 1.78241 0.103299 1.53356 0.309896 1.33681C0.516493 1.14005 0.777778 1.04167 1.09375 1.04167H6.85417C6.85417 0.740741 6.95747 0.491898 7.16406 0.295139C7.37066 0.0983798 7.63194 0 7.94792 0H15.3854C15.7014 0 15.9627 0.0983798 16.1693 0.295139C16.3759 0.491898 16.4792 0.740741 16.4792 1.04167H22.2396C22.5556 1.04167 22.8168 1.14005 23.0234 1.33681C23.23 1.53356 23.3333 1.78241 23.3333 2.08333C23.3333 2.38426 23.23 2.6331 23.0234 2.82986C22.8168 3.02662 22.5556 3.125 22.2396 3.125H21.8385V22.9167C21.8385 23.4722 21.6198 23.9583 21.1823 24.375C20.7448 24.7917 20.2344 25 19.651 25H3.68229ZM3.68229 3.125V22.9167H19.651V3.125H3.68229ZM7.54688 18.8889C7.54688 19.1898 7.65017 19.4387 7.85677 19.6354C8.06337 19.8322 8.32465 19.9306 8.64063 19.9306C8.9566 19.9306 9.21788 19.8322 9.42448 19.6354C9.63108 19.4387 9.73438 19.1898 9.73438 18.8889V7.11806C9.73438 6.81713 9.63108 6.56829 9.42448 6.37153C9.21788 6.17477 8.9566 6.07639 8.64063 6.07639C8.32465 6.07639 8.06337 6.17477 7.85677 6.37153C7.65017 6.56829 7.54688 6.81713 7.54688 7.11806V18.8889ZM13.599 18.8889C13.599 19.1898 13.7023 19.4387 13.9089 19.6354C14.1155 19.8322 14.3767 19.9306 14.6927 19.9306C15.0087 19.9306 15.27 19.8322 15.4766 19.6354C15.6832 19.4387 15.7865 19.1898 15.7865 18.8889V7.11806C15.7865 6.81713 15.6832 6.56829 15.4766 6.37153C15.27 6.17477 15.0087 6.07639 14.6927 6.07639C14.3767 6.07639 14.1155 6.17477 13.9089 6.37153C13.7023 6.56829 13.599 6.81713 13.599 7.11806V18.8889Z" fill="#FE5045"/>
</svg>
