<svg width="20" height="20" viewBox="0 0 20 20" fill="none" xmlns="http://www.w3.org/2000/svg">
<path d="M13.6944 14.75C13.4907 14.5093 13.3889 14.2359 13.3889 13.93C13.3889 13.6248 13.4907 13.3704 13.6944 13.1667L15.75 11.1111H7.77778C7.46296 11.1111 7.19926 11.0044 6.98667 10.7911C6.77333 10.5785 6.66667 10.3148 6.66667 10C6.66667 9.68519 6.77333 9.42111 6.98667 9.20778C7.19926 8.99519 7.46296 8.88889 7.77778 8.88889H15.75L13.6944 6.83333C13.4722 6.61111 13.3611 6.34741 13.3611 6.04222C13.3611 5.7363 13.4722 5.47222 13.6944 5.25C13.8981 5.02778 14.153 4.91667 14.4589 4.91667C14.7641 4.91667 15.0185 5.01852 15.2222 5.22222L19.2222 9.22222C19.3333 9.33333 19.4122 9.4537 19.4589 9.58333C19.5048 9.71296 19.5278 9.85185 19.5278 10C19.5278 10.1481 19.5048 10.287 19.4589 10.4167C19.4122 10.5463 19.3333 10.6667 19.2222 10.7778L15.2222 14.7778C14.9815 15.0185 14.7178 15.1248 14.4311 15.0967C14.1437 15.0693 13.8981 14.9537 13.6944 14.75ZM2.22222 20C1.61111 20 1.08778 19.7826 0.652222 19.3478C0.217407 18.9122 0 18.3889 0 17.7778V2.22222C0 1.61111 0.217407 1.08778 0.652222 0.652222C1.08778 0.217407 1.61111 0 2.22222 0H8.88889C9.2037 0 9.46778 0.106296 9.68111 0.318889C9.8937 0.532222 10 0.796296 10 1.11111C10 1.42593 9.8937 1.68963 9.68111 1.90222C9.46778 2.11556 9.2037 2.22222 8.88889 2.22222H2.22222V17.7778H8.88889C9.2037 17.7778 9.46778 17.8844 9.68111 18.0978C9.8937 18.3104 10 18.5741 10 18.8889C10 19.2037 9.8937 19.4674 9.68111 19.68C9.46778 19.8933 9.2037 20 8.88889 20H2.22222Z" fill="#FE5045"/>
</svg>
