<svg width="30" height="20" viewBox="0 0 30 20" fill="none" xmlns="http://www.w3.org/2000/svg">
<path d="M1.25 20C0.888889 20 0.590278 19.8819 0.354167 19.6458C0.118056 19.4097 0 19.1111 0 18.75C0 18.3889 0.118056 18.0903 0.354167 17.8542C0.590278 17.6181 0.888889 17.5 1.25 17.5H28.75C29.1111 17.5 29.4097 17.6181 29.6458 17.8542C29.8819 18.0903 30 18.3889 30 18.75C30 19.1111 29.8819 19.4097 29.6458 19.6458C29.4097 19.8819 29.1111 20 28.75 20H1.25ZM1.25 11.25C0.888889 11.25 0.590278 11.1319 0.354167 10.8958C0.118056 10.6597 0 10.3611 0 10C0 9.63889 0.118056 9.34028 0.354167 9.10417C0.590278 8.86805 0.888889 8.75 1.25 8.75H28.75C29.1111 8.75 29.4097 8.86805 29.6458 9.10417C29.8819 9.34028 30 9.63889 30 10C30 10.3611 29.8819 10.6597 29.6458 10.8958C29.4097 11.1319 29.1111 11.25 28.75 11.25H1.25ZM1.25 2.5C0.888889 2.5 0.590278 2.38194 0.354167 2.14583C0.118056 1.90972 0 1.61111 0 1.25C0 0.888889 0.118056 0.590278 0.354167 0.354167C0.590278 0.118056 0.888889 0 1.25 0H28.75C29.1111 0 29.4097 0.118056 29.6458 0.354167C29.8819 0.590278 30 0.888889 30 1.25C30 1.61111 29.8819 1.90972 29.6458 2.14583C29.4097 2.38194 29.1111 2.5 28.75 2.5H1.25Z" fill="#1C1B1F"/>
</svg>
