<svg width="24" height="24" viewBox="0 0 24 24" fill="none" xmlns="http://www.w3.org/2000/svg">
<mask id="mask0_20_22" style="mask-type:alpha" maskUnits="userSpaceOnUse" x="0" y="0" width="24" height="24">
<rect width="24" height="24" fill="#D9D9D9"/>
</mask>
<g mask="url(#mask0_20_22)">
<path d="M12 16C13.25 16 14.3127 15.5627 15.188 14.688C16.0627 13.8127 16.5 12.75 16.5 11.5C16.5 10.25 16.0627 9.18733 15.188 8.312C14.3127 7.43733 13.25 7 12 7C10.75 7 9.68734 7.43733 8.812 8.312C7.93734 9.18733 7.5 10.25 7.5 11.5C7.5 12.75 7.93734 13.8127 8.812 14.688C9.68734 15.5627 10.75 16 12 16ZM12 14.2C11.25 14.2 10.6127 13.9373 10.088 13.412C9.56267 12.8873 9.3 12.25 9.3 11.5C9.3 10.75 9.56267 10.1123 10.088 9.587C10.6127 9.06233 11.25 8.8 12 8.8C12.75 8.8 13.3877 9.06233 13.913 9.587C14.4377 10.1123 14.7 10.75 14.7 11.5C14.7 12.25 14.4377 12.8873 13.913 13.412C13.3877 13.9373 12.75 14.2 12 14.2ZM12 19C9.68334 19 7.56667 18.3877 5.65 17.163C3.73334 15.9377 2.28334 14.2833 1.3 12.2C1.25 12.1167 1.21667 12.0123 1.2 11.887C1.18334 11.7623 1.175 11.6333 1.175 11.5C1.175 11.3667 1.18334 11.2373 1.2 11.112C1.21667 10.9873 1.25 10.8833 1.3 10.8C2.28334 8.71667 3.73334 7.06267 5.65 5.838C7.56667 4.61267 9.68334 4 12 4C14.3167 4 16.4333 4.61267 18.35 5.838C20.2667 7.06267 21.7167 8.71667 22.7 10.8C22.75 10.8833 22.7833 10.9873 22.8 11.112C22.8167 11.2373 22.825 11.3667 22.825 11.5C22.825 11.6333 22.8167 11.7623 22.8 11.887C22.7833 12.0123 22.75 12.1167 22.7 12.2C21.7167 14.2833 20.2667 15.9377 18.35 17.163C16.4333 18.3877 14.3167 19 12 19ZM12 17C13.8833 17 15.6127 16.504 17.188 15.512C18.7627 14.5207 19.9667 13.1833 20.8 11.5C19.9667 9.81667 18.7627 8.479 17.188 7.487C15.6127 6.49567 13.8833 6 12 6C10.1167 6 8.38734 6.49567 6.812 7.487C5.23734 8.479 4.03334 9.81667 3.2 11.5C4.03334 13.1833 5.23734 14.5207 6.812 15.512C8.38734 16.504 10.1167 17 12 17Z" fill="#5A45FE"/>
</g>
</svg>
