<svg width="24" height="24" viewBox="0 0 24 24" fill="none" xmlns="http://www.w3.org/2000/svg">
<mask id="mask0_20_16" style="mask-type:alpha" maskUnits="userSpaceOnUse" x="0" y="0" width="24" height="24">
<rect width="24" height="24" fill="#5A45FE"/>
</mask>
<g mask="url(#mask0_20_16)">
<path d="M16.1 13.3L14.65 11.85C14.8 11.0667 14.575 10.3333 13.975 9.65C13.375 8.96666 12.6 8.7 11.65 8.85L10.2 7.4C10.4833 7.26667 10.7707 7.16667 11.062 7.1C11.354 7.03333 11.6667 7 12 7C13.25 7 14.3127 7.43733 15.188 8.312C16.0627 9.18733 16.5 10.25 16.5 11.5C16.5 11.8333 16.4667 12.146 16.4 12.438C16.3333 12.7293 16.2333 13.0167 16.1 13.3ZM19.3 16.45L17.85 15.05C18.4833 14.5667 19.046 14.0373 19.538 13.462C20.0293 12.8873 20.45 12.2333 20.8 11.5C19.9667 9.81666 18.7707 8.479 17.212 7.487C15.654 6.49567 13.9167 6 12 6C11.5167 6 11.0417 6.03333 10.575 6.1C10.1083 6.16667 9.65 6.26667 9.2 6.4L7.65 4.85C8.33333 4.56667 9.03333 4.354 9.75 4.212C10.4667 4.07067 11.2167 4 12 4C14.3833 4 16.525 4.629 18.425 5.887C20.325 7.14567 21.75 8.78333 22.7 10.8C22.75 10.8833 22.7833 10.9873 22.8 11.112C22.8167 11.2373 22.825 11.3667 22.825 11.5C22.825 11.6333 22.8127 11.7623 22.788 11.887C22.7627 12.0123 22.7333 12.1167 22.7 12.2C22.3167 13.05 21.8377 13.8333 21.263 14.55C20.6877 15.2667 20.0333 15.9 19.3 16.45ZM19.1 21.9L15.6 18.45C15.0167 18.6333 14.4293 18.771 13.838 18.863C13.246 18.9543 12.6333 19 12 19C9.61667 19 7.475 18.371 5.575 17.113C3.675 15.8543 2.25 14.2167 1.3 12.2C1.25 12.1167 1.21667 12.0123 1.2 11.887C1.18333 11.7623 1.175 11.6333 1.175 11.5C1.175 11.3667 1.18333 11.2417 1.2 11.125C1.21667 11.0083 1.25 10.9083 1.3 10.825C1.65 10.075 2.06667 9.38333 2.55 8.75C3.03333 8.11667 3.56667 7.53333 4.15 7L2.075 4.9C1.89167 4.71667 1.8 4.48733 1.8 4.212C1.8 3.93733 1.9 3.7 2.1 3.5C2.28333 3.31667 2.51667 3.225 2.8 3.225C3.08333 3.225 3.31667 3.31667 3.5 3.5L20.5 20.5C20.6833 20.6833 20.7793 20.9127 20.788 21.188C20.796 21.4627 20.7 21.7 20.5 21.9C20.3167 22.0833 20.0833 22.175 19.8 22.175C19.5167 22.175 19.2833 22.0833 19.1 21.9ZM5.55 8.4C5.06667 8.83333 4.625 9.30833 4.225 9.825C3.825 10.3417 3.48333 10.9 3.2 11.5C4.03333 13.1833 5.229 14.5207 6.787 15.512C8.34567 16.504 10.0833 17 12 17C12.3333 17 12.6583 16.9793 12.975 16.938C13.2917 16.896 13.6167 16.85 13.95 16.8L13.05 15.85C12.8667 15.9 12.6917 15.9373 12.525 15.962C12.3583 15.9873 12.1833 16 12 16C10.75 16 9.68733 15.5627 8.812 14.688C7.93733 13.8127 7.5 12.75 7.5 11.5C7.5 11.3167 7.51233 11.1417 7.537 10.975C7.56233 10.8083 7.6 10.6333 7.65 10.45L5.55 8.4Z" fill="#5A45FE"/>
</g>
</svg>
